<svg xmlns="http://www.w3.org/2000/svg" viewBox="0 0 7410 3900">
  <!-- 13 bandes alternées (7 rouges, 6 blanches) -->
  <rect width="7410" height="300" fill="#b22234" y="0"/>
  <rect width="7410" height="300" fill="#fff" y="300"/>
  <rect width="7410" height="300" fill="#b22234" y="600"/>
  <rect width="7410" height="300" fill="#fff" y="900"/>
  <rect width="7410" height="300" fill="#b22234" y="1200"/>
  <rect width="7410" height="300" fill="#fff" y="1500"/>
  <rect width="7410" height="300" fill="#b22234" y="1800"/>
  <rect width="7410" height="300" fill="#fff" y="2100"/>
  <rect width="7410" height="300" fill="#b22234" y="2400"/>
  <rect width="7410" height="300" fill="#fff" y="2700"/>
  <rect width="7410" height="300" fill="#b22234" y="3000"/>
  <rect width="7410" height="300" fill="#fff" y="3300"/>
  <rect width="7410" height="300" fill="#b22234" y="3600"/>
  
  <!-- Canton bleu -->
  <rect width="2964" height="2100" fill="#3c3b6e"/>
  
  <!-- 50 étoiles disposées en 9 rangées alternées -->
  <g fill="#fff">
    <!-- Définition d'une étoile -->
    <g id="star">
      <polygon points="0,-90 26,-28 84,-28 38,9 52,67 0,34 -52,67 -38,9 -84,-28 -26,-28"/>
    </g>
    
    <!-- Rangées avec 6 étoiles -->
    <g transform="translate(247,180)">
      <use href="#star" x="0" y="0"/>
      <use href="#star" x="494" y="0"/>
      <use href="#star" x="988" y="0"/>
      <use href="#star" x="1482" y="0"/>
      <use href="#star" x="1976" y="0"/>
      <use href="#star" x="2470" y="0"/>
    </g>
    <g transform="translate(247,480)">
      <use href="#star" x="0" y="0"/>
      <use href="#star" x="494" y="0"/>
      <use href="#star" x="988" y="0"/>
      <use href="#star" x="1482" y="0"/>
      <use href="#star" x="1976" y="0"/>
      <use href="#star" x="2470" y="0"/>
    </g>
    <g transform="translate(247,780)">
      <use href="#star" x="0" y="0"/>
      <use href="#star" x="494" y="0"/>
      <use href="#star" x="988" y="0"/>
      <use href="#star" x="1482" y="0"/>
      <use href="#star" x="1976" y="0"/>
      <use href="#star" x="2470" y="0"/>
    </g>
    <g transform="translate(247,1080)">
      <use href="#star" x="0" y="0"/>
      <use href="#star" x="494" y="0"/>
      <use href="#star" x="988" y="0"/>
      <use href="#star" x="1482" y="0"/>
      <use href="#star" x="1976" y="0"/>
      <use href="#star" x="2470" y="0"/>
    </g>
    <g transform="translate(247,1380)">
      <use href="#star" x="0" y="0"/>
      <use href="#star" x="494" y="0"/>
      <use href="#star" x="988" y="0"/>
      <use href="#star" x="1482" y="0"/>
      <use href="#star" x="1976" y="0"/>
      <use href="#star" x="2470" y="0"/>
    </g>
    
    <!-- Rangées avec 5 étoiles -->
    <g transform="translate(494,300)">
      <use href="#star" x="0" y="0"/>
      <use href="#star" x="494" y="0"/>
      <use href="#star" x="988" y="0"/>
      <use href="#star" x="1482" y="0"/>
      <use href="#star" x="1976" y="0"/>
    </g>
    <g transform="translate(494,600)">
      <use href="#star" x="0" y="0"/>
      <use href="#star" x="494" y="0"/>
      <use href="#star" x="988" y="0"/>
      <use href="#star" x="1482" y="0"/>
      <use href="#star" x="1976" y="0"/>
    </g>
    <g transform="translate(494,900)">
      <use href="#star" x="0" y="0"/>
      <use href="#star" x="494" y="0"/>
      <use href="#star" x="988" y="0"/>
      <use href="#star" x="1482" y="0"/>
      <use href="#star" x="1976" y="0"/>
    </g>
    <g transform="translate(494,1200)">
      <use href="#star" x="0" y="0"/>
      <use href="#star" x="494" y="0"/>
      <use href="#star" x="988" y="0"/>
      <use href="#star" x="1482" y="0"/>
      <use href="#star" x="1976" y="0"/>
    </g>
  </g>
</svg>